<?xml version="1.0" encoding="UTF-8" standalone="no"?>
<svg
   width="68.768127"
   height="68.768127"
   viewBox="0 0 68.768127 68.768127"
   fill="none"
   version="1.1"
   id="svg2"
   sodipodi:docname="small.svg"
   inkscape:version="1.3 (0e150ed6c4, 2023-07-21)"
   inkscape:export-filename="small.png"
   inkscape:export-xdpi="893.43713"
   inkscape:export-ydpi="893.43713"
   xmlns:inkscape="http://www.inkscape.org/namespaces/inkscape"
   xmlns:sodipodi="http://sodipodi.sourceforge.net/DTD/sodipodi-0.dtd"
   xmlns="http://www.w3.org/2000/svg"
   xmlns:svg="http://www.w3.org/2000/svg">
  <sodipodi:namedview
     id="namedview2"
     pagecolor="#505050"
     bordercolor="#eeeeee"
     borderopacity="1"
     inkscape:showpageshadow="0"
     inkscape:pageopacity="0"
     inkscape:pagecheckerboard="0"
     inkscape:deskcolor="#505050"
     inkscape:zoom="5.1031746"
     inkscape:cx="20.281493"
     inkscape:cy="39.877138"
     inkscape:window-width="1280"
     inkscape:window-height="659"
     inkscape:window-x="0"
     inkscape:window-y="0"
     inkscape:window-maximized="1"
     inkscape:current-layer="svg2" />
  <circle
     style="fill:#f9fefd;stroke-width:6.70078;stroke-linecap:round;stroke-linejoin:round;stroke-dasharray:7.95346, 15.9069"
     id="path2"
     cx="34.384064"
     cy="34.384064"
     r="34.384064" />
  <g
     clip-path="url(#clip0_163_1709)"
     id="g1"
     transform="translate(8.2993011,7.5535336)">
    <path
       d="m 19.4106,0 c -3.5745,0 -6.5,2.92552 -6.5,6.5 0,3.5745 2.9255,6.5 6.5,6.5 0.6843,0 1.3447,-0.1082 1.9656,-0.3068 l 3.4195,7.268 c -4.225,2.6619 -6.4303,7.864 -5.0721,12.9324 0.2381,0.8867 0.58,1.7421 1.0187,2.5486 l -9.23,5.93 -0.0011,-5e-4 C 10.3163,39.9256 8.51084,39 6.5,39 2.92552,39 0,41.9255 0,45.5 0,49.0745 2.92552,52 6.5,52 10.0745,52 13,49.0745 13,45.5 13,44.68 12.8398,43.8963 12.559,43.172 l 9.3351,-5.9972 c 2.8173,3.5084 7.5421,5.2286 12.1586,3.9915 6.2296,-1.6692 9.9424,-8.1 8.2732,-14.3296 -0.5098,-1.9103 -1.4987,-3.6589 -2.873,-5.0804 l 5.1361,-6.6602 c 0.6902,0.3306 1.4457,0.5028 2.211,0.5039 2.8564,0 5.2,-2.3436 5.2,-5.2 0,-2.85636 -2.3436,-5.2 -5.2,-5.2 -2.8564,0 -5.2,2.34364 -5.2,5.2 0,1.3203 0.5044,2.5267 1.3255,3.4471 l -5.0477,6.5447 c -2.756,-1.9895 -6.3507,-2.7742 -9.881,-1.8283 -0.4638,0.1248 -0.9121,0.2782 -1.3468,0.4529 L 23.2284,11.7437 C 24.8487,10.5581 25.9106,8.64968 25.9106,6.5 25.9106,2.92552 22.985,0 19.4106,0 Z m 0,2.6 c 2.1694,0 3.9,1.73056 3.9,3.9 0,2.16944 -1.7306,3.9 -3.9,3.9 C 18.8977,10.4026 18.3894,10.3035 17.915,10.1085 17.4406,9.9134 17.0097,9.62622 16.647,9.26355 16.2843,8.90088 15.9972,8.46991 15.8021,7.99556 15.607,7.52121 15.5079,7.01289 15.5106,6.5 c 0,-2.16944 1.7305,-3.9 3.9,-3.9 z M 46.8,7.8 c 1.4513,0 2.6,1.14868 2.6,2.6 0,1.4513 -1.1487,2.6 -2.6,2.6 -1.4513,0 -2.6,-1.1487 -2.6,-2.6 0,-1.45132 1.1487,-2.6 2.6,-2.6 z M 31.4356,19.4714 c 4.422,0.1752 8.411,3.1845 9.6272,7.6762 0.003,0.0086 0.0056,0.0173 0.0078,0.026 0.0026,0.0103 0.0047,0.0207 0.0063,0.0312 1.4659,5.5344 -1.8257,11.2232 -7.3601,12.7057 C 28.172,41.3962 22.4656,38.102 20.9799,32.5577 19.4943,27.013 22.7895,21.3049 28.3338,19.8193 29.3442,19.5475 30.39,19.4305 31.4356,19.4714 Z M 6.5,41.6 c 2.16944,0 3.9,1.7306 3.9,3.9 0,2.1694 -1.73056,3.9 -3.9,3.9 C 5.98711,49.4026 5.47879,49.3035 5.00444,49.1085 4.53009,48.9134 4.09912,48.6262 3.73645,48.2636 3.37377,47.9009 3.0866,47.4699 2.89154,46.9956 2.69647,46.5212 2.59738,46.0129 2.6,45.5 c 0,-2.1694 1.73056,-3.9 3.9,-3.9 z"
       fill="#000000"
       id="path1" />
    <circle
       cx="31"
       cy="30"
       r="11"
       stroke="#000000"
       stroke-width="2"
       id="circle1" />
  </g>
  <defs
     id="defs2">
    <clipPath
       id="clip0_163_1709">
      <rect
         width="52"
         height="52"
         fill="#ffffff"
         id="rect2"
         x="0"
         y="0" />
    </clipPath>
  </defs>
</svg>
