<?xml version="1.0" encoding="UTF-8" standalone="no"?>
<svg
   width="204.11162"
   height="204.11162"
   viewBox="0 0 204.11162 204.11162"
   fill="none"
   version="1.1"
   id="svg4"
   sodipodi:docname="favicon_.svg"
   inkscape:version="1.3 (0e150ed6c4, 2023-07-21)"
   inkscape:export-filename="favicon_.png"
   inkscape:export-xdpi="301.01178"
   inkscape:export-ydpi="301.01178"
   xmlns:inkscape="http://www.inkscape.org/namespaces/inkscape"
   xmlns:sodipodi="http://sodipodi.sourceforge.net/DTD/sodipodi-0.dtd"
   xmlns="http://www.w3.org/2000/svg"
   xmlns:svg="http://www.w3.org/2000/svg">
  <defs
     id="defs4" />
  <sodipodi:namedview
     id="namedview4"
     pagecolor="#505050"
     bordercolor="#eeeeee"
     borderopacity="1"
     inkscape:showpageshadow="0"
     inkscape:pageopacity="0"
     inkscape:pagecheckerboard="0"
     inkscape:deskcolor="#505050"
     inkscape:zoom="0.31205879"
     inkscape:cx="136.19229"
     inkscape:cy="91.328944"
     inkscape:window-width="1280"
     inkscape:window-height="659"
     inkscape:window-x="0"
     inkscape:window-y="0"
     inkscape:window-maximized="1"
     inkscape:current-layer="svg4" />
  <circle
     style="fill:#f9fefd;stroke-width:19.8887;stroke-linecap:round;stroke-linejoin:round;stroke-dasharray:23.6067, 47.2135"
     id="path2-3"
     cx="102.05581"
     cy="102.05581"
     r="102.05581" />
  <g
     id="g4"
     transform="translate(-626.44419,-330.44419)">
    <path
       d="m 780.384,374.808 c 0,6.919 -5.094,12.649 -11.74,13.653 v 40.445 c 4.321,0.876 7.574,4.693 7.574,9.269 0,5.223 -4.239,9.457 -9.468,9.457 -5.229,0 -9.468,-4.234 -9.468,-9.457 0,-4.576 3.253,-8.393 7.574,-9.269 v -40.394 c -6.271,-0.77 -11.243,-5.736 -12.014,-12.001 h -39.595 c -0.839,6.822 -6.661,12.105 -13.719,12.105 -7.634,0 -13.823,-6.182 -13.823,-13.808 0,-7.626 6.189,-13.808 13.823,-13.808 6.927,0 12.663,5.089 13.668,11.728 h 39.698 c 1.004,-6.639 6.74,-11.728 13.667,-11.728 7.634,0 13.823,6.182 13.823,13.808 z"
       fill="#000000"
       id="path1" />
    <path
       d="m 791.177,382.185 c -7.634,0 -13.823,6.182 -13.823,13.808 0,7.05 5.289,12.866 12.119,13.705 v 41.065 c -6.272,0.77 -11.244,5.737 -12.015,12.002 h -42.709 c -0.878,-4.317 -4.698,-7.567 -9.279,-7.567 -5.229,0 -9.468,4.235 -9.468,9.458 0,5.223 4.239,9.458 9.468,9.458 4.581,0 8.401,-3.249 9.279,-7.566 h 42.761 c 1.004,6.638 6.741,11.727 13.667,11.727 7.634,0 13.823,-6.182 13.823,-13.808 0,-6.919 -5.094,-12.649 -11.74,-13.653 v -41.168 c 6.646,-1.003 11.74,-6.734 11.74,-13.653 0,-7.626 -6.189,-13.808 -13.823,-13.808 z"
       fill="#000000"
       id="path2" />
    <path
       d="m 667.527,417.642 c 6.272,-0.77 11.244,-5.737 12.015,-12.002 h 42.709 c 0.878,4.317 4.698,7.566 9.279,7.566 5.229,0 9.468,-4.234 9.468,-9.457 0,-5.224 -4.239,-9.458 -9.468,-9.458 -4.581,0 -8.401,3.249 -9.279,7.566 H 679.49 c -1.004,-6.639 -6.741,-11.727 -13.667,-11.727 -7.634,0 -13.823,6.182 -13.823,13.808 0,6.919 5.094,12.649 11.74,13.652 v 41.169 c -6.646,1.003 -11.74,6.734 -11.74,13.652 0,7.626 6.189,13.809 13.823,13.809 7.634,0 13.823,-6.183 13.823,-13.809 0,-7.049 -5.289,-12.865 -12.119,-13.704 z"
       fill="#000000"
       id="path3" />
    <path
       d="m 713.247,488.489 h 39.595 c 0.839,-6.822 6.661,-12.105 13.719,-12.105 7.634,0 13.823,6.182 13.823,13.808 0,7.626 -6.189,13.808 -13.823,13.808 -6.927,0 -12.663,-5.089 -13.667,-11.728 h -39.698 c -1.005,6.639 -6.741,11.728 -13.668,11.728 -7.634,0 -13.823,-6.182 -13.823,-13.808 0,-6.919 5.095,-12.649 11.741,-13.653 v -40.445 c -4.322,-0.876 -7.575,-4.693 -7.575,-9.269 0,-5.223 4.239,-9.457 9.468,-9.457 5.229,0 9.468,4.234 9.468,9.457 0,4.576 -3.253,8.393 -7.574,9.269 v 40.393 c 6.271,0.771 11.243,5.737 12.014,12.002 z"
       fill="#000000"
       id="path4" />
  </g>
</svg>
