<svg width="115" height="52" viewBox="0 0 115 52" fill="none" xmlns="http://www.w3.org/2000/svg">
<g clip-path="url(#clip0_166_2822)">
<path d="M19.4106 0C15.8361 0 12.9106 2.92552 12.9106 6.5C12.9106 10.0745 15.8361 13 19.4106 13C20.0949 13 20.7553 12.8918 21.3762 12.6932L24.7957 19.9612C20.5707 22.6231 18.3654 27.8252 19.7236 32.8936C19.9617 33.7803 20.3036 34.6357 20.7423 35.4422L11.5123 41.3722L11.5112 41.3717C10.3163 39.9256 8.51084 39 6.5 39C2.92552 39 0 41.9255 0 45.5C0 49.0745 2.92552 52 6.5 52C10.0745 52 13 49.0745 13 45.5C13 44.68 12.8398 43.8963 12.559 43.172L21.8941 37.1748C24.7114 40.6832 29.4362 42.4034 34.0527 41.1663C40.2823 39.4971 43.9951 33.0663 42.3259 26.8367C41.8161 24.9264 40.8272 23.1778 39.4529 21.7563L44.589 15.0961C45.2792 15.4267 46.0347 15.5989 46.8 15.6C49.6564 15.6 52 13.2564 52 10.4C52 7.54364 49.6564 5.2 46.8 5.2C43.9436 5.2 41.6 7.54364 41.6 10.4C41.6 11.7203 42.1044 12.9267 42.9255 13.8471L37.8778 20.3918C35.1218 18.4023 31.5271 17.6176 27.9968 18.5635C27.533 18.6883 27.0847 18.8417 26.65 19.0164L23.2284 11.7437C24.8487 10.5581 25.9106 8.64968 25.9106 6.5C25.9106 2.92552 22.985 0 19.4106 0ZM19.4106 2.6C21.58 2.6 23.3106 4.33056 23.3106 6.5C23.3106 8.66944 21.58 10.4 19.4106 10.4C18.8977 10.4026 18.3894 10.3035 17.915 10.1085C17.4406 9.9134 17.0097 9.62622 16.647 9.26355C16.2843 8.90088 15.9972 8.46991 15.8021 7.99556C15.607 7.52121 15.5079 7.01289 15.5106 6.5C15.5106 4.33056 17.2411 2.6 19.4106 2.6ZM46.8 7.8C48.2513 7.8 49.4 8.94868 49.4 10.4C49.4 11.8513 48.2513 13 46.8 13C45.3487 13 44.2 11.8513 44.2 10.4C44.2 8.94868 45.3487 7.8 46.8 7.8ZM31.4356 19.4714C35.8576 19.6466 39.8466 22.6559 41.0628 27.1476C41.0658 27.1562 41.0684 27.1649 41.0706 27.1736C41.0732 27.1839 41.0753 27.1943 41.0769 27.2048C42.5428 32.7392 39.2512 38.428 33.7168 39.9105C28.172 41.3962 22.4656 38.102 20.9799 32.5577C19.4943 27.013 22.7895 21.3049 28.3338 19.8193C29.3442 19.5475 30.39 19.4305 31.4356 19.4714ZM6.5 41.6C8.66944 41.6 10.4 43.3306 10.4 45.5C10.4 47.6694 8.66944 49.4 6.5 49.4C5.98711 49.4026 5.47879 49.3035 5.00444 49.1085C4.53009 48.9134 4.09912 48.6262 3.73645 48.2636C3.37377 47.9009 3.0866 47.4699 2.89154 46.9956C2.69647 46.5212 2.59738 46.0129 2.6 45.5C2.6 43.3306 4.33056 41.6 6.5 41.6Z" fill="black"/>
<circle cx="31" cy="30" r="10.5" stroke="black" stroke-width="3"/>
</g>
<path d="M48.576 37C48.3707 37 48.2167 36.9487 48.114 36.846C48.0113 36.7433 47.9233 36.6113 47.85 36.45L44.704 26.242C44.6893 26.1687 44.682 26.1027 44.682 26.044C44.682 25.912 44.726 25.802 44.814 25.714C44.9167 25.6113 45.0267 25.56 45.144 25.56H46.772C46.948 25.56 47.0873 25.6113 47.19 25.714C47.2927 25.802 47.3513 25.89 47.366 25.978L49.522 33.26L51.81 26.044C51.8393 25.9413 51.9053 25.8387 52.008 25.736C52.1107 25.6187 52.2647 25.56 52.47 25.56H53.57C53.7753 25.56 53.9293 25.6187 54.032 25.736C54.1347 25.8387 54.2007 25.9413 54.23 26.044L56.518 33.26L58.674 25.978C58.6887 25.89 58.74 25.802 58.828 25.714C58.9307 25.6113 59.07 25.56 59.246 25.56H60.874C61.006 25.56 61.116 25.6113 61.204 25.714C61.3067 25.802 61.358 25.912 61.358 26.044C61.358 26.1027 61.3433 26.1687 61.314 26.242L58.168 36.45C58.124 36.6113 58.0433 36.7433 57.926 36.846C57.8233 36.9487 57.6693 37 57.464 37H56.034C55.8287 37 55.6673 36.9487 55.55 36.846C55.4327 36.7433 55.352 36.6113 55.308 36.45L53.02 29.498L50.732 36.45C50.6733 36.6113 50.5853 36.7433 50.468 36.846C50.3653 36.9487 50.204 37 49.984 37H48.576ZM64.4669 37C64.3202 37 64.1955 36.9487 64.0929 36.846C63.9902 36.7433 63.9389 36.6187 63.9389 36.472V26.088C63.9389 25.9413 63.9902 25.8167 64.0929 25.714C64.1955 25.6113 64.3202 25.56 64.4669 25.56H66.2709C66.4175 25.56 66.5422 25.6113 66.6449 25.714C66.7475 25.8167 66.7989 25.9413 66.7989 26.088V26.99C67.1802 26.5207 67.6642 26.132 68.2509 25.824C68.8522 25.5013 69.5929 25.34 70.4729 25.34C71.3675 25.34 72.1449 25.5453 72.8049 25.956C73.4649 26.352 73.9709 26.9167 74.3229 27.65C74.6895 28.3833 74.8729 29.2633 74.8729 30.29V36.472C74.8729 36.6187 74.8215 36.7433 74.7189 36.846C74.6162 36.9487 74.4915 37 74.3449 37H72.4089C72.2622 37 72.1375 36.9487 72.0349 36.846C71.9322 36.7433 71.8809 36.6187 71.8809 36.472V30.422C71.8809 29.5713 71.6682 28.904 71.2429 28.42C70.8322 27.936 70.2309 27.694 69.4389 27.694C68.6762 27.694 68.0675 27.936 67.6129 28.42C67.1582 28.904 66.9309 29.5713 66.9309 30.422V36.472C66.9309 36.6187 66.8795 36.7433 66.7769 36.846C66.6742 36.9487 66.5495 37 66.4029 37H64.4669ZM78.6354 37C78.4887 37 78.3641 36.9487 78.2614 36.846C78.1587 36.7433 78.1074 36.6187 78.1074 36.472V26.088C78.1074 25.9413 78.1587 25.8167 78.2614 25.714C78.3641 25.6113 78.4887 25.56 78.6354 25.56H80.4614C80.6227 25.56 80.7474 25.6113 80.8354 25.714C80.9381 25.8167 80.9894 25.9413 80.9894 26.088V36.472C80.9894 36.6187 80.9381 36.7433 80.8354 36.846C80.7474 36.9487 80.6227 37 80.4614 37H78.6354ZM78.5474 23.668C78.3861 23.668 78.2541 23.624 78.1514 23.536C78.0634 23.4333 78.0194 23.3013 78.0194 23.14V21.556C78.0194 21.4093 78.0634 21.2847 78.1514 21.182C78.2541 21.0793 78.3861 21.028 78.5474 21.028H80.5494C80.7107 21.028 80.8427 21.0793 80.9454 21.182C81.0481 21.2847 81.0994 21.4093 81.0994 21.556V23.14C81.0994 23.3013 81.0481 23.4333 80.9454 23.536C80.8427 23.624 80.7107 23.668 80.5494 23.668H78.5474ZM89.5182 37C88.6382 37 87.8975 36.846 87.2962 36.538C86.6948 36.23 86.2475 35.7753 85.9542 35.174C85.6608 34.558 85.5142 33.7953 85.5142 32.886V27.892H83.7762C83.6295 27.892 83.5048 27.8407 83.4022 27.738C83.2995 27.6353 83.2482 27.5107 83.2482 27.364V26.088C83.2482 25.9413 83.2995 25.8167 83.4022 25.714C83.5048 25.6113 83.6295 25.56 83.7762 25.56H85.5142V21.908C85.5142 21.7613 85.5582 21.6367 85.6462 21.534C85.7488 21.4313 85.8808 21.38 86.0422 21.38H87.8242C87.9708 21.38 88.0955 21.4313 88.1982 21.534C88.3008 21.6367 88.3522 21.7613 88.3522 21.908V25.56H91.1022C91.2488 25.56 91.3735 25.6113 91.4762 25.714C91.5788 25.8167 91.6302 25.9413 91.6302 26.088V27.364C91.6302 27.5107 91.5788 27.6353 91.4762 27.738C91.3735 27.8407 91.2488 27.892 91.1022 27.892H88.3522V32.666C88.3522 33.2673 88.4548 33.7367 88.6602 34.074C88.8802 34.4113 89.2542 34.58 89.7822 34.58H91.3002C91.4468 34.58 91.5715 34.6313 91.6742 34.734C91.7768 34.8367 91.8282 34.9613 91.8282 35.108V36.472C91.8282 36.6187 91.7768 36.7433 91.6742 36.846C91.5715 36.9487 91.4468 37 91.3002 37H89.5182ZM99.3898 37C98.5098 37 97.7691 36.846 97.1678 36.538C96.5665 36.23 96.1191 35.7753 95.8258 35.174C95.5325 34.558 95.3858 33.7953 95.3858 32.886V27.892H93.6478C93.5011 27.892 93.3765 27.8407 93.2738 27.738C93.1711 27.6353 93.1198 27.5107 93.1198 27.364V26.088C93.1198 25.9413 93.1711 25.8167 93.2738 25.714C93.3765 25.6113 93.5011 25.56 93.6478 25.56H95.3858V21.908C95.3858 21.7613 95.4298 21.6367 95.5178 21.534C95.6205 21.4313 95.7525 21.38 95.9138 21.38H97.6958C97.8425 21.38 97.9671 21.4313 98.0698 21.534C98.1725 21.6367 98.2238 21.7613 98.2238 21.908V25.56H100.974C101.12 25.56 101.245 25.6113 101.348 25.714C101.45 25.8167 101.502 25.9413 101.502 26.088V27.364C101.502 27.5107 101.45 27.6353 101.348 27.738C101.245 27.8407 101.12 27.892 100.974 27.892H98.2238V32.666C98.2238 33.2673 98.3265 33.7367 98.5318 34.074C98.7518 34.4113 99.1258 34.58 99.6538 34.58H101.172C101.318 34.58 101.443 34.6313 101.546 34.734C101.648 34.8367 101.7 34.9613 101.7 35.108V36.472C101.7 36.6187 101.648 36.7433 101.546 36.846C101.443 36.9487 101.318 37 101.172 37H99.3898ZM106.159 41.18C106.042 41.18 105.939 41.136 105.851 41.048C105.763 40.96 105.719 40.8573 105.719 40.74C105.719 40.6813 105.719 40.6227 105.719 40.564C105.734 40.52 105.763 40.4613 105.807 40.388L107.523 36.318L103.299 26.352C103.241 26.2053 103.211 26.1027 103.211 26.044C103.226 25.912 103.277 25.802 103.365 25.714C103.453 25.6113 103.563 25.56 103.695 25.56H105.477C105.653 25.56 105.785 25.604 105.873 25.692C105.961 25.78 106.027 25.8753 106.071 25.978L108.997 33.172L112.011 25.978C112.055 25.8607 112.121 25.7653 112.209 25.692C112.297 25.604 112.429 25.56 112.605 25.56H114.365C114.483 25.56 114.585 25.604 114.673 25.692C114.776 25.78 114.827 25.8827 114.827 26C114.827 26.088 114.798 26.2053 114.739 26.352L108.513 40.762C108.455 40.8793 108.381 40.9747 108.293 41.048C108.205 41.136 108.073 41.18 107.897 41.18H106.159Z" fill="black"/>
<defs>
<clipPath id="clip0_166_2822">
<rect width="52" height="52" fill="white"/>
</clipPath>
</defs>
</svg>
