<?xml version="1.0" encoding="UTF-8" standalone="no"?>
<svg
   width="708.10999"
   height="143"
   viewBox="0 0 708.10999 143"
   fill="none"
   version="1.1"
   id="svg13"
   sodipodi:docname="logo.svg"
   inkscape:version="1.3 (0e150ed6c4, 2023-07-21)"
   xmlns:inkscape="http://www.inkscape.org/namespaces/inkscape"
   xmlns:sodipodi="http://sodipodi.sourceforge.net/DTD/sodipodi-0.dtd"
   xmlns="http://www.w3.org/2000/svg"
   xmlns:svg="http://www.w3.org/2000/svg">
  <defs
     id="defs13" />
  <sodipodi:namedview
     id="namedview13"
     pagecolor="#505050"
     bordercolor="#eeeeee"
     borderopacity="1"
     inkscape:showpageshadow="0"
     inkscape:pageopacity="0"
     inkscape:pagecheckerboard="0"
     inkscape:deskcolor="#505050"
     inkscape:zoom="0.44131778"
     inkscape:cx="356.88569"
     inkscape:cy="71.377138"
     inkscape:window-width="1280"
     inkscape:window-height="659"
     inkscape:window-x="0"
     inkscape:window-y="0"
     inkscape:window-maximized="1"
     inkscape:current-layer="svg13" />
  <path
     d="m 128.384,13.808 c 0,6.919 -5.094,12.649 -11.74,13.653 v 40.445 c 4.321,0.876 7.574,4.693 7.574,9.269 0,5.223 -4.239,9.457 -9.468,9.457 -5.229,0 -9.468,-4.234 -9.468,-9.457 0,-4.576 3.253,-8.393 7.574,-9.269 V 27.512 c -6.271,-0.77 -11.243,-5.736 -12.014,-12.001 H 61.247 C 60.408,22.333 54.586,27.616 47.528,27.616 39.894,27.616 33.705,21.434 33.705,13.808 33.705,6.182 39.894,0 47.528,0 54.455,0 60.191,5.089 61.196,11.728 h 39.698 C 101.898,5.089 107.634,0 114.561,0 c 7.634,0 13.823,6.182 13.823,13.808 z"
     fill="#ffffff"
     id="path1" />
  <path
     d="m 139.177,21.185 c -7.634,0 -13.823,6.182 -13.823,13.808 0,7.05 5.289,12.866 12.119,13.705 v 41.065 c -6.272,0.77 -11.244,5.737 -12.015,12.002 H 82.749 c -0.878,-4.317 -4.698,-7.567 -9.279,-7.567 -5.229,0 -9.468,4.235 -9.468,9.458 0,5.223 4.239,9.458 9.468,9.458 4.581,0 8.401,-3.249 9.279,-7.566 h 42.761 c 1.004,6.638 6.741,11.727 13.667,11.727 7.634,0 13.823,-6.182 13.823,-13.808 0,-6.919 -5.094,-12.649 -11.74,-13.653 V 48.646 C 147.906,47.643 153,41.912 153,34.993 153,27.367 146.811,21.185 139.177,21.185 Z"
     fill="#ffffff"
     id="path2" />
  <path
     d="m 15.527,56.642 c 6.272,-0.77 11.244,-5.737 12.015,-12.002 h 42.709 c 0.878,4.317 4.698,7.566 9.279,7.566 5.229,0 9.468,-4.234 9.468,-9.457 0,-5.224 -4.239,-9.458 -9.468,-9.458 -4.581,0 -8.401,3.249 -9.279,7.566 H 27.49 C 26.486,34.218 20.749,29.13 13.823,29.13 6.189,29.13 0,35.312 0,42.938 0,49.857 5.094,55.587 11.74,56.59 V 97.759 C 5.094,98.762 0,104.493 0,111.411 c 0,7.626 6.189,13.809 13.823,13.809 7.634,0 13.823,-6.183 13.823,-13.809 0,-7.049 -5.289,-12.865 -12.119,-13.704 z"
     fill="#ffffff"
     id="path3" />
  <path
     d="m 61.247,127.489 h 39.595 c 0.839,-6.822 6.661,-12.105 13.719,-12.105 7.634,0 13.823,6.182 13.823,13.808 0,7.626 -6.189,13.808 -13.823,13.808 -6.927,0 -12.663,-5.089 -13.667,-11.728 H 61.196 C 60.191,137.911 54.455,143 47.528,143 c -7.634,0 -13.823,-6.182 -13.823,-13.808 0,-6.919 5.095,-12.649 11.741,-13.653 V 75.094 c -4.322,-0.876 -7.575,-4.693 -7.575,-9.269 0,-5.223 4.239,-9.457 9.468,-9.457 5.229,0 9.468,4.234 9.468,9.457 0,4.576 -3.253,8.393 -7.574,9.269 v 40.393 c 6.271,0.771 11.243,5.737 12.014,12.002 z"
     fill="#ffffff"
     id="path4" />
  <path
     d="m 257.448,66.208 v 6.912 c 0,15.274 -2.901,26.368 -8.704,33.28 -5.717,6.912 -14.933,10.368 -27.648,10.368 -12.715,0 -21.931,-3.456 -27.648,-10.368 C 187.816,99.488 185,88.266 185,72.736 V 66.08 c 0,-14.166 2.859,-24.704 8.576,-31.616 5.803,-6.912 14.933,-10.368 27.392,-10.368 12.544,0 21.76,3.498 27.648,10.496 5.888,6.997 8.832,17.536 8.832,31.616 z m -17.792,6.528 V 68 c 0,-8.192 -1.024,-14.72 -3.072,-19.584 -2.389,-5.632 -7.509,-8.448 -15.36,-8.448 -7.936,0 -13.099,2.816 -15.488,8.448 -1.963,4.608 -2.944,11.136 -2.944,19.584 v 4.736 c 0,11.008 1.536,18.432 4.608,22.272 1.195,1.621 2.944,3.029 5.248,4.224 2.389,1.109 5.205,1.664 8.448,1.664 3.328,0 6.144,-0.555 8.448,-1.664 2.304,-1.11 4.096,-2.475 5.376,-4.096 1.28,-1.622 2.261,-3.755 2.944,-6.4 1.195,-4.182 1.792,-9.515 1.792,-16 z"
     fill="#ffffff"
     id="path5" />
  <path
     d="M 372.591,24.864 348.143,116 H 333.295 L 316.527,60.704 299.759,116 h -14.848 l -24.32,-91.136 h 18.56 l 14.08,57.472 13.952,-47.488 c 1.536,-7.083 4.779,-10.624 9.728,-10.624 2.475,0 4.352,0.938 5.632,2.816 1.28,1.792 2.432,4.394 3.456,7.808 l 13.824,47.488 14.208,-57.472 z"
     fill="#ffffff"
     id="path6" />
  <path
     d="m 452.427,24.864 v 81.92 c 0,2.816 -0.853,5.248 -2.56,7.296 -1.707,1.962 -3.712,2.944 -6.016,2.944 -5.888,0 -10.709,-3.414 -14.464,-10.24 L 397.899,57.504 V 116 H 380.107 V 24.864 h 17.152 l 37.376,59.648 V 24.864 Z"
     fill="#ffffff"
     id="path7" />
  <path
     d="M 486.119,116 H 468.327 V 24.864 h 17.792 z"
     fill="#ffffff"
     id="path8" />
  <path
     d="m 551.266,34 -0.5,0.5 -0.5,0.5 -1,1 -1.5,1.5 -3.239,3.236 L 521.791,63.5 V 40.736 h -24.32 V 24.864 h 62.795 l -3,3.136 z"
     fill="#ffffff"
     id="path9" />
  <path
     d="M 634.6,40.736 H 610.148 V 64.5 l -8.382,-8.5 -7,-7 -5.5,-5.5 -3,-3 -1.5,-1.5 -1.5,-1.5 -2.5,-2.5 -2,-2 -3,-3 -5,-5.136 H 634.6 Z"
     fill="#ffffff"
     id="path10" />
  <path
     d="m 708.11,24.864 -27.4,53.76 V 116 H 663.05 V 78.624 l -27.39,-53.76 h 19.33 L 672.01,61.6 688.78,24.864 Z"
     fill="#ffffff"
     id="path11" />
  <path
     d="M 539.361,58.605 V 116 H 521.569 V 76.406 Z"
     fill="#ffffff"
     id="path12" />
  <path
     d="M 609.926,76.715 V 116 H 592.134 V 58.921 l 4.632,4.579 4.5,4.5 z"
     fill="#ffffff"
     id="path13" />
</svg>
